<svg width="18" height="14" viewBox="0 0 18 14" fill="none" xmlns="http://www.w3.org/2000/svg">
<path fill-rule="evenodd" clip-rule="evenodd" d="M6.75 9.25L15.75 0.25L18 2.5L9 11.5L6.75 9.25ZM4.5 11.5L6.75 9.25L2.25 4.75L0 7L4.5 11.5Z" fill="white"/>
<path fill-rule="evenodd" clip-rule="evenodd" d="M6.75 9.25L15.75 0.25L18 2.5L9 11.5L6.75 9.25ZM4.5 11.5L6.75 9.25L2.25 4.75L0 7L4.5 11.5Z" fill="black"/>
<path d="M4.5 11.5L6.75 13.75L9 11.5L6.75 9.25L4.5 11.5Z" fill="white"/>
<path d="M4.5 11.5L6.75 13.75L9 11.5L6.75 9.25L4.5 11.5Z" fill="black"/>
</svg>
